<?xml version="1.0"?>
<svg xmlns:rdf="http://www.w3.org/1999/02/22-rdf-syntax-ns#" xmlns="http://www.w3.org/2000/svg" xmlns:cc="http://web.resource.org/cc/" xmlns:xlink="http://www.w3.org/1999/xlink" xmlns:dc="http://purl.org/dc/elements/1.1/" xmlns:svg="http://www.w3.org/2000/svg" id="Layer_1" xml:space="preserve" overflow="visible" viewBox="0 0 266.975 490.712" version="1.1" enable-background="new 0 0 266.975 490.712">
<g clip-rule="evenodd" fill-rule="evenodd">
	<path d="m191.58 238.21c-1.44 11.667 4.369 16.169 9.323 25.819 1.399 2.726 2.285 6.255 3.587 9.323 1.298 3.062 3.367 5.977 4.303 8.606 0.934 2.622 0.513 5.489 1.435 7.89 3.104 8.086 9.999 15.048 12.192 22.95 2.099 7.562 1.779 20.209 2.869 29.405 0.699 5.907 1.164 11.966 2.868 18.647 0.324 1.271 1.85 2.853 2.151 4.304 2.314 11.129 3.679 22.245 5.738 34.425 3.679 4.21 9.566 6.212 15.061 8.606 8.419 13.099 16.851 26.183 15.779 48.771-4.384 4.466-7.896 14.565-15.062 17.212-2.368 0.875-7.029 0.157-10.758 0.718-9.35 1.406-20.751 5.513-29.405 4.303-4.519-0.632-8.384-3.839-12.192-4.303-10.559-1.286-23.765 2.398-28.688-5.737-2.163-3.575-1.228-11.193-1.435-15.062-9.392-8.488-32.522-6.017-45.9-2.869-1.298 7.721 1.754 16.707-0.718 23.668-1.617 4.554-6.187 6.51-7.889 10.041-14.676 2.038-34.561 4.737-53.073 5.737-9.442 0.51-16.604-3.01-23.667-4.303-11.446-2.096-19.691-0.849-23.668-10.041-0.643-8.646 2.69-15.176 0-22.951-0.942-2.722-3.317-4.151-4.303-6.454-3.971-9.274-1.216-20.292 2.869-27.971 3.415-6.419 4.789-9.802 11.475-12.192 9.244-12.817 5.172-33.074 7.172-51.639 1.66-15.403 8.659-26.991 14.344-36.577 9.661-3.73 10.131-11.245 13.627-23.668 2.681-9.528 4.994-17.244 10.041-23.668-1.296-7.01-0.61-13.847 2.152-18.647-17.639-6.029-43.74-3.596-48.77-22.233-4.64-2.309-9.344-3.984-12.192-7.172-13.278-14.858-0.299-44.525 5.021-59.528-6.167-16.104-8.652-41.78-5.021-63.114-3.641-10.698-11.739-19.013-10.754-33.724 1.161-17.345 6.184-28.297 17.93-35.143 2.148-1.252 9.886-0.847 12.909 0 3.345 0.938 6.974 5.053 11.476 4.303 3.14-0.523 3.735-3.657 6.455-5.738 4.924-3.768 11.617-4.894 14.344-8.606 3.487-0.228 6.066-1.379 9.323-2.869 2.34-1.07 4.732-3.321 7.172-4.303 7.381-2.973 17.492-3.665 27.253-5.738 16.05-3.408 31.581-3.688 50.204-2.869 3.97 0.174 7.951 1.804 11.476 1.435 6.248-0.656 11.684-6.644 17.213-7.172 10.514-1.005 17.37 6.109 23.667 8.606 2.388 4.896 7.646 12.463 9.324 19.365 1.054 4.334 0.047 8.82 0.717 13.626 1.282 9.201 5.693 17.704 8.606 26.537 0.697 2.114 1.463 4.388 2.151 6.455 2.47 7.408-0.037 18.452-2.868 23.668-2.413 4.445-7.201 7.851-7.89 11.475-1.33 6.999 1.321 16.808 0.718 24.385-0.272 3.406-0.649 8.184-1.435 11.476-0.771 3.23-2.824 5.153-2.869 7.889-0.133 8.099 7.279 15.479 11.476 21.516 2.457 3.535 5.789 7.361 6.454 10.758 0.754 3.847 1.073 10.296-0.717 15.061-1.229 3.271-5.689 5.156-7.172 7.889-2.848 5.251-2.637 11.468-6.455 15.779-6.11 6.89-17.26 10.49-27.96 13.61zm-166.4-174.28c-4.913 10.979-8.99 20.105-10.758 32.991-2.649 19.31-2.241 41.756 3.586 58.811 2.743-2.164-0.761-6.118 2.869-7.172 0.598 23.633-19.559 44.51-9.324 71.003 3.037 0.369 3.396 3.871 6.455 5.021 8.063 3.029 19.833-0.906 27.253-2.152 1.185-0.011 0.401-1.989 1.435-2.151 8.083-0.116 16.962-6.205 23.667-9.324 6.692-3.113 13.422-5.187 19.364-8.606 4.032-2.321 7.32-5.85 11.476-7.889 20.29-9.958 56.474-3.3 74.589 2.869 3.946 1.344 8.091 2.6 12.192 3.586 8.574 2.062 17.753 5.754 25.819 5.738 8.027-0.016 13.227-4.206 16.495-7.172 4.294-19.595-10.509-25.58-15.778-38.729-1.118-2.791-1.345-6.485-2.151-10.041-2.445-2.586-7.355-6.496-6.455-10.041 4.615 0.405 3.924 6.118 8.606 6.455 3.944-9.293 3.102-25.781 1.435-35.143-1.796-10.089-0.856-20.217-3.586-30.122-0.53-1.925-2.239-3.769-2.869-5.738-4.636-14.496-8.131-28.931-15.061-39.446-0.507-0.77-1.788-0.887-2.152-1.435-0.644-0.971 0.016-2.599-0.717-3.586-4.037-5.444-9.775-7.509-13.627-12.91 2.328-0.416 3.337 0.488 5.021 0.717-1.873-15.358 16.953-10.753 21.517-4.303 1.352 6.983 10.312 17.71 3.586 25.819-1.107-14.958-5.181-30.614-20.799-28.688-5.583 8.492 3.973 15.253 8.605 20.082 7.215 10.477 10.129 25.254 16.496 36.578 2.206 11.66 5.025 22.707 6.455 35.143 5.083-3.468 9.316-14.492 8.606-24.385-0.733-10.209-8.451-24.432-10.758-37.294-0.633-3.524-0.145-7.086-0.718-10.758-1.192-7.638-5.493-17.115-9.323-20.799-3.281-3.157-13.975-7.117-17.931-7.172-7.006-0.098-12.55 6.068-19.364 6.455-2.604 0.148-5.177-1.154-7.889-1.435-8.156-0.842-18.531-1.288-27.254-0.717-20.971 1.371-42.934 4.971-57.376 13.627 8.627 0.458 15.423 2.746 20.082 7.172-7.586 3.267-16.249-2.713-25.102-2.869-12.653-0.223-19.81 5.761-26.537 12.91 9.879-5.327 23.504-11.589 38.729-7.172 4.251 3.819 8.789 5.738 15.061 7.889 2.883 0.989 6.644 2.738 8.606 2.869 10.076 0.671 19.201-6.936 26.537-10.758 8.096-1.584 21.192-4.599 29.405 0 0.709 0.397 1.552 2.489 2.869 3.586 1.197 0.998 3.298 1.34 4.303 2.151 8.033 6.49 13.856 18.955 13.627 31.557-0.069 3.799-0.576 8.408-3.586 10.758 0.61-8.432-0.228-17.301-2.869-25.819-6.301-6.53-14.652-16.787-27.254-17.93-16.166-1.466-28.848 11.438-46.618 10.041-8.882-0.699-17.852-7.535-27.253-8.606-14.367-1.637-27.961 2.913-34.426 10.041-6.803 7.501-8.761 17.67-12.91 26.537-0.203 5.658 4.123 11.847 2.869 17.93-10.461-16.267-1.482-39.844 10.041-50.204-7.795 4.993-12.836 12.401-17.226 22.213zm-1.435-30.123c-1.062 3.174-3.151 0.815-5.021 1.435-1.292 0.428-5.029 2.363-6.455 3.586-5.63 4.829-10.269 27.113-9.324 34.426 0.452 3.498 2.964 6.943 4.303 10.041 1.745 4.036 2.372 7.758 4.303 10.758 5.197-23.014 13.506-42.914 29.405-55.225-5.147-2.263-12.255-2.565-17.211-5.021zm153.48 178.58c-25.427-5.328-55.755-9.23-76.741 0-0.896 0.394-1.163 1.623-2.152 2.152-1.465 0.784-3.829 0.656-5.737 1.435-11.347 4.625-24.899 11.924-35.86 15.061-4.384 5.896-16.267 4.293-23.667 7.172 11.281 7.755 27.207 6.494 42.315 10.041 3.909 6.094 15.077 3.784 22.95 6.455 4.396 1.492 7.316 5.062 10.041 6.455 4.979 0.438 8.984-0.1 11.476-2.151 1.851 0.062 0.754 3.07 3.586 2.151 11.75-0.441 20.662-3.722 30.122-6.455 1.333-1.765-1.807-1.605 0-4.303 8.211-1.089 13.612-7.642 20.799-10.758 7.336-3.181 15.877-4.228 24.385-7.172 6.838-5.116 16.718-7.189 20.799-15.062-14.72 3.39-32.59 2.2-42.33-5.02zm-18.65 44.47c-15.015 5.416-31.248 6.645-48.053 10.041-4.402-2.531-11.168-2.698-15.778-5.021-2.342 3.873-1.027 11.403-3.586 15.062 5.311-0.052 6.14 4.379 10.758 5.02 1.384-0.289 0.062-3.284 2.869-2.151-1.067 3.697 1.71 3.55 2.151 5.738 9.708 3.062 19.924 1.272 29.405 1.434 2.547 0.044 5.226 1.18 7.89 0.718 3.904-0.678 10.882-6.23 16.495-9.324 14.69-8.095 28.334-16.873 27.254-38.011-13.17 0.22-19.07 12.76-29.39 16.49zm-83.909-2.87c-2.961 4.227-0.88 13.074-0.717 18.647 3.568 2.275 7.603 7.553 12.91 5.737 1.643-6.007 3.46-11.84 3.586-19.364-3.418-3.14-11.906-4.72-15.779-5.03zm95.389 23.66c-2.063 1.269-4.343 2.359-6.455 3.586-6.151 3.571-11.961 8.998-17.93 10.041-14.732 2.574-31.31-1.188-45.901-2.151-0.592-8.254-9.438-8.253-18.647-7.89-3.932-1.566-5.512-5.485-10.041-6.455-4.416 11.293-10.26 22.237-11.475 35.86-0.345 3.862 0.387 7.567 0 11.476-2.748 27.697-11.227 57.403-15.779 82.478-0.628 3.343 1.86-0.987 2.152 1.435-3.726 8.944-12.291 13.05-14.344 23.668-2.988-0.573-1.199 1.623-2.151 2.868-2.898 3.789-8.362 6.246-10.041 11.476-3.016 9.396 2.564 20.762-2.869 29.405 2.904 7.137 12.32 7.762 21.516 8.606-0.246-6.001-3.779-10.791-2.869-17.93 0.611-4.789 4.546-8.877 5.738-14.345 1.961-8.994-0.479-22.953 9.324-24.385-0.222 2.012-3.249 2.854-4.303 5.021-2.06 4.23-1.044 11.034-2.152 17.931-1.107 6.896-4.784 12.82-5.02 17.213-0.446 8.292 3.94 14.208 7.172 20.081 9.975 2.366 19.647 0.733 30.123 0 4.001-7.146 4.161-22.812 3.586-33.708-0.157-2.974-2.255-5.985 0-7.89 4.878 12.983 3.884 30.706 0.717 41.598 8.41 0.76 13.458-1.842 20.799-2.151 8.434-9.629 6.68-27.712 3.586-40.881-1.59-1.778-5.207-5.282-2.869-8.606 8.001 10.326 11.537 35.87 4.304 48.77 15.981 0.611 12.252-15.056 12.192-25.818-0.023-4.235 1.669-7.976 1.435-11.476-0.468-6.969-5.807-14.884-9.324-17.93-4.227-3.662-12.465-4.346-11.475-12.193 3.118 1.664 3.613 5.95 7.889 6.455-4.93-12.639 1.981-26.764 2.869-40.163 5.332 9.519-2.406 21.314-1.435 32.274 0.858 9.679 6.84 12.622 10.758 18.646 1.78 2.737 2.003 5.567 4.304 7.89v6.455c5.159 0.47 8.562-2.213 12.909-2.869 6.746-1.018 14.285 1.244 22.233 0.718 2.467 1.119 4.395 2.777 7.89 2.868-0.718-9.043 1.313-20.366 6.454-25.819-1.939-2.228-1.116-5.902-2.151-9.323-1.599-5.283-5.045-10.356-5.737-15.062-0.721-4.896-1.368-12.787 3.586-15.062-2.002 10.931 1.186 17.837 3.586 25.103 1.015 3.071 2.24 6.242 3.586 9.323 0.479-1.912 0.346-4.436 3.586-3.586-2.556 11.606-10.353 17.107-10.041 27.971 0.139 4.807 3.42 8.546 4.304 13.627 0.746 4.291-1.604 8.928 0.717 12.91 6.263 4.71 18.663 6.445 27.254 2.868 6.198-11.464-2.992-22.911-4.304-34.425-0.962-8.45-1.396-13.036-2.868-17.931 7.71 3.385 4.292 15.292 5.737 23.668 6.416 6.102 8.689 22.514 3.586 30.122 7.889 5.02 23.669 4.386 30.84-0.717 7.159-15.746-3.299-33.626-4.304-50.204-1.85-2.944-6.581-6.789-6.454-9.324 10.412 4.41 12.766 16.879 12.192 32.274 3.076 4.075 6.196 12.392 5.021 20.082-0.514 3.357-4.205 7.26-2.152 7.889 9.371-1.117 15.695-3.197 17.931-10.041 2.605-7.976-0.999-17.126-2.152-23.667 5.533 2.595 4.864 11.393 7.173 17.213 2.796-19.31-6.338-32.856-12.91-45.184-6.692-2.581-12.877-4.12-15.778-10.759-2.41-5.515-1.151-13.246-5.021-18.646-0.854-12.046-4.717-25.573-6.455-39.446-1.317-10.525-0.149-21.809-3.586-30.123-2.012-4.867-6.403-7.926-6.454-12.909-2.143-1.601-3.876-4.663-4.304-6.455-3.258-13.644-10.089-27.061-16.495-37.294-4.51 8.73-11.63 17.3-20.8 22.94zm-134.84 79.61c-1.019 12.774 1.399 27.486-1.434 39.446-1.503 6.347-6.357 11.414-10.041 14.344-5.99 4.765-6.372 10.381-12.192 15.778-1.63 7.137 0.641 13.352 2.869 18.647 2.72-2.778 4.633-6.364 6.455-10.041 2.43-1.155 4.608-2.564 5.738-5.021 0.286-5.183-3.623-13.434 0-17.213 3.053 1.489 1.087 7.997 2.869 10.758 3.949-7.074 9.017-12.145 11.475-20.799 3.478-12.24 4.292-28.634 6.455-40.88 4.31-11.559 5.043-28.228 7.172-40.881 0.323-1.921 2.834-3.078 0.717-5.021-9.868 9.94-18.473 20.69-20.083 40.87z"/>
	<path d="m123.44 19.461c-3.63 3.303-5.464 8.402-11.476 9.323 0.651-5.326 2.78-9.173 4.304-13.626 4.45-0.618 6.93 0.733 7.18 4.303z"/>
	<path d="m106.23 28.785c-6.417-0.039-7.693-5.217-10.758-8.606 4.608-8.273 11.668 0.79 10.758 8.606z"/>
	<path d="m192.29 53.887c-3.531-2.613-3.351-7.79-5.02-11.475-1.279-2.822-3.647-5.065-5.021-7.889-1.398-2.875-3.218-5.428-5.738-7.889-5.581-0.88-10.347-3.648-16.495-4.303-13.357-1.423-26.159 4.669-35.86 5.738 1.674-5.157 11.612-3.633 15.062-7.89 26.96-9.547 53.92 2.969 53.07 33.708z"/>
	<path d="m40.963 38.826c-15.9 12.31-24.209 32.211-29.405 55.224-1.932-3-2.559-6.722-4.303-10.758-1.339-3.097-3.851-6.542-4.303-10.041-0.945-7.313 3.693-29.597 9.324-34.426 1.426-1.223 5.163-3.158 6.455-3.586 1.869-0.619 3.958 1.739 5.021-1.435 4.954 2.457 12.062 2.759 17.211 5.022zm-27.971 20.799c2.703-6.468 1.106-14.112 7.889-15.778 2.694-0.662 3.989 2.14 7.172 1.435-6.035-11.256-23.777 4.643-15.061 14.343z" fill="#fff"/>
	<path d="m28.053 45.281c-3.183 0.705-4.478-2.096-7.172-1.435-6.783 1.666-5.186 9.311-7.889 15.778-8.716-9.699 9.026-25.598 15.061-14.343z"/>
	<path d="m134.92 54.604c15.472-2.138 15.934 41.467-0.717 38.729-12.1-1.99-14.56-36.617 0.72-38.729z"/>
	<path d="m63.196 65.362c19.564-18.809 26.185 34.65 10.041 38.012-16.51 3.44-17.588-29.068-10.041-38.008z"/>
	<path d="m74.671 132.06c5.152-4.889 14.135-5.947 19.364-10.758 8.651-1.612 25.801-3.962 35.86 0.717 2.38 1.107 10.139 8.059 11.476 12.192 0.988 3.054 1.062 6.496 0 9.324-2.208 5.882-16.35 13.07-27.253 14.344-13.645 1.594-34.619-1.757-39.446-6.455-4.367-4.23-2.738-11.76-0.013-19.36z"/>
	<path d="m219.55 217.41c-4.081 7.872-13.961 9.946-20.799 15.062-8.508 2.944-17.049 3.991-24.385 7.172-7.187 3.116-12.588 9.669-20.799 10.758-1.807 2.698 1.333 2.539 0 4.303-9.46 2.733-18.372 6.013-30.122 6.455-2.832 0.919-1.735-2.089-3.586-2.151-2.491 2.052-6.497 2.589-11.476 2.151-2.725-1.393-5.645-4.963-10.041-6.455-7.873-2.671-19.042-0.361-22.95-6.455-15.108-3.547-31.034-2.286-42.315-10.041 7.401-2.879 19.284-1.275 23.667-7.172 10.961-3.137 24.514-10.436 35.86-15.061 1.909-0.778 4.272-0.651 5.737-1.435 0.989-0.529 1.256-1.758 2.152-2.152 20.986-9.23 51.314-5.328 76.741 0 9.75 7.22 27.62 8.41 42.33 5.02z" fill="#fff"/>
	<path d="m187.99 240.36c1.08 21.138-12.563 29.917-27.254 38.011-5.613 3.094-12.591 8.646-16.495 9.324-2.664 0.462-5.343-0.674-7.89-0.718-9.481-0.161-19.697 1.629-29.405-1.434-0.441-2.188-3.219-2.041-2.151-5.738-2.807-1.133-1.485 1.862-2.869 2.151-4.618-0.641-5.447-5.071-10.758-5.02 2.559-3.658 1.244-11.188 3.586-15.062 4.61 2.322 11.376 2.489 15.778 5.021 16.805-3.396 33.038-4.625 48.053-10.041 10.32-3.72 16.22-16.26 29.41-16.49z" fill="#fff"/>
	<path d="m90.45 259.01c-0.125 7.524-1.943 13.357-3.586 19.364-5.307 1.815-9.341-3.462-12.91-5.737-0.163-5.573-2.244-14.42 0.717-18.647 3.873 0.32 12.361 1.9 15.779 5.03z" fill="#fff"/>
	<path d="m190.86 254.7c6.406 10.234 13.237 23.651 16.495 37.294 0.428 1.792 2.161 4.854 4.304 6.455 0.051 4.983 4.442 8.042 6.454 12.909 3.437 8.314 2.269 19.598 3.586 30.123 1.738 13.873 5.601 27.4 6.455 39.446 3.869 5.4 2.61 13.132 5.021 18.646 2.901 6.639 9.086 8.178 15.778 10.759 6.572 12.327 15.706 25.874 12.91 45.184-2.309-5.82-1.64-14.618-7.173-17.213 1.153 6.541 4.758 15.691 2.152 23.667-2.235 6.844-8.56 8.924-17.931 10.041-2.053-0.629 1.639-4.531 2.152-7.889 1.176-7.69-1.944-16.007-5.021-20.082 0.573-15.396-1.78-27.864-12.192-32.274-0.127 2.535 4.604 6.38 6.454 9.324 1.005 16.578 11.463 34.458 4.304 50.204-7.171 5.103-22.951 5.736-30.84 0.717 5.104-7.608 2.83-24.021-3.586-30.122-1.445-8.376 1.973-20.283-5.737-23.668 1.472 4.895 1.906 9.48 2.868 17.931 1.312 11.514 10.502 22.961 4.304 34.425-8.591 3.577-20.991 1.842-27.254-2.868-2.321-3.982 0.029-8.619-0.717-12.91-0.884-5.081-4.165-8.82-4.304-13.627-0.312-10.863 7.485-16.364 10.041-27.971-3.24-0.85-3.107 1.674-3.586 3.586-1.346-3.081-2.571-6.252-3.586-9.323-2.4-7.266-5.588-14.172-3.586-25.103-4.954 2.274-4.307 10.166-3.586 15.062 0.692 4.705 4.139 9.778 5.737 15.062 1.035 3.421 0.212 7.096 2.151 9.323-5.141 5.453-7.172 16.776-6.454 25.819-3.495-0.091-5.423-1.749-7.89-2.868-7.948 0.526-15.487-1.735-22.233-0.718-4.348 0.656-7.75 3.339-12.909 2.869v-6.455c-2.301-2.322-2.523-5.152-4.304-7.89-3.918-6.024-9.899-8.968-10.758-18.646-0.972-10.96 6.767-22.756 1.435-32.274-0.888 13.399-7.799 27.524-2.869 40.163-4.276-0.505-4.771-4.791-7.889-6.455-0.99 7.848 7.248 8.531 11.475 12.193 3.517 3.046 8.856 10.961 9.324 17.93 0.234 3.5-1.458 7.24-1.435 11.476 0.06 10.763 3.789 26.43-12.192 25.818 7.233-12.899 3.698-38.443-4.304-48.77-2.338 3.324 1.279 6.828 2.869 8.606 3.094 13.169 4.848 31.252-3.586 40.881-7.34 0.31-12.389 2.911-20.799 2.151 3.167-10.892 4.161-28.614-0.717-41.598-2.255 1.904-0.157 4.916 0 7.89 0.575 10.896 0.416 26.562-3.586 33.708-10.476 0.733-20.148 2.366-30.123 0-3.231-5.873-7.618-11.789-7.172-20.081 0.236-4.393 3.913-10.316 5.02-17.213 1.108-6.896 0.092-13.7 2.152-17.931 1.055-2.166 4.082-3.009 4.303-5.021-9.802 1.432-7.363 15.391-9.324 24.385-1.192 5.468-5.127 9.556-5.738 14.345-0.91 7.139 2.624 11.929 2.869 17.93-9.196-0.845-18.612-1.47-21.516-8.606 5.433-8.644-0.147-20.009 2.869-29.405 1.679-5.229 7.143-7.687 10.041-11.476 0.953-1.245-0.836-3.441 2.151-2.868 2.053-10.618 10.618-14.724 14.344-23.668-0.292-2.422-2.78 1.908-2.152-1.435 4.552-25.074 13.031-54.78 15.779-82.478 0.387-3.908-0.345-7.613 0-11.476 1.215-13.623 7.06-24.567 11.475-35.86 4.529 0.97 6.108 4.889 10.041 6.455 9.209-0.363 18.056-0.364 18.647 7.89 14.592 0.963 31.169 4.726 45.901 2.151 5.969-1.043 11.778-6.47 17.93-10.041 2.112-1.227 4.392-2.317 6.455-3.586 9.19-5.64 16.31-14.21 20.82-22.95zm-9.33 83.2v2.151c3.616 0.209 8.766-1.115 8.606 2.869-5.82 11.392-25.176 9.249-27.254 24.385 4.248-2.162 4.641-4.984 8.606-7.89 8.026-5.879 20.856-8.387 22.233-17.213-0.873-1.518-2.698-2.082-2.868-4.303-3.65 0.68-7.49-1.14-9.33 0zm-98.252 16.49c9.155 7.387 10.624 26.131 26.537 24.385 0.417-2.568-2.123-2.181-4.303-2.151-3.381-3.764-6.784-5.182-10.041-9.323-6.19-7.874-8.174-16.918-20.799-17.213 1.839 2.45 4.758 3.83 8.598 4.29zm81.762 24.39c0.372-1.863 4.073-6.953 0.717-7.889-1.25 0.99-4.18 6.85-0.72 7.89zm44.46 23.67c1.511-0.772 13.412 2.961 14.345 0.717-2.5-1.7-11.58-4-14.34-0.72zm38.73 21.51c0.704 5.272 0.907 11.047 6.454 11.476-3.836-8.355-4.609-19.775-12.909-23.668 0.9 5.33 3.86 8.58 6.46 12.19zm-170.69 16.5c0.583-4.417 3.763-14.12-1.434-15.778 2.166 4.93-1.583 12.9 1.434 15.78z" fill="#fff"/>
	<path d="m55.307 316.38c2.117 1.942-0.394 3.1-0.717 5.021-2.128 12.653-2.862 29.322-7.172 40.881-2.164 12.246-2.977 28.64-6.455 40.88-2.458 8.654-7.526 13.725-11.475 20.799-1.782-2.761 0.184-9.269-2.869-10.758-3.623 3.779 0.286 12.03 0 17.213-1.13 2.456-3.308 3.865-5.738 5.021-1.822 3.677-3.735 7.263-6.455 10.041-2.228-5.296-4.499-11.511-2.869-18.647 5.82-5.397 6.202-11.014 12.192-15.778 3.684-2.93 8.538-7.997 10.041-14.344 2.833-11.96 0.416-26.672 1.434-39.446 1.611-20.17 10.216-30.92 20.083-40.87z" fill="#fff"/>
	<path d="m190.86 337.9c0.17 2.221 1.995 2.785 2.868 4.303-1.377 8.826-14.207 11.334-22.233 17.213-3.966 2.905-4.358 5.728-8.606 7.89 2.078-15.136 21.434-12.993 27.254-24.385 0.159-3.984-4.99-2.66-8.606-2.869v-2.151c1.84-1.14 5.68 0.68 9.33 0z"/>
	<path d="m74.671 350.09c12.625 0.295 14.608 9.339 20.799 17.213 3.257 4.142 6.66 5.56 10.041 9.323 2.18-0.029 4.72-0.417 4.303 2.151-15.913 1.746-17.382-16.998-26.537-24.385-3.835-0.45-6.754-1.83-8.602-4.29z"/>
	<path d="m165.76 370.89c3.356 0.936-0.345 6.025-0.717 7.889-3.46-1.04-0.53-6.9 0.72-7.89z"/>
	<path d="m223.85 403.16c-0.933 2.244-12.834-1.489-14.345-0.717 2.76-3.27 11.84-0.97 14.35 0.72z"/>
	<path d="m241.78 411.77c8.3 3.893 9.073 15.312 12.909 23.668-5.547-0.429-5.75-6.203-6.454-11.476-2.61-3.61-5.57-6.86-6.46-12.19z"/>
	<path d="m76.106 424.68c5.197 1.658 2.018 11.361 1.434 15.778-3.017-2.88 0.732-10.85-1.434-15.78z"/>
	<path d="m42.397 41.694c-11.523 10.36-20.502 33.938-10.041 50.204 1.254-6.083-3.072-12.271-2.869-17.93 4.148-8.867 6.106-19.036 12.91-26.537 6.465-7.128 20.059-11.678 34.426-10.041 9.401 1.071 18.371 7.908 27.253 8.606 17.77 1.398 30.452-11.507 46.618-10.041 12.602 1.143 20.953 11.4 27.254 17.93 2.642 8.519 3.479 17.388 2.869 25.819 3.01-2.35 3.517-6.958 3.586-10.758 0.229-12.602-5.594-25.067-13.627-31.557-1.005-0.812-3.105-1.154-4.303-2.151-1.317-1.097-2.16-3.189-2.869-3.586-8.213-4.599-21.31-1.584-29.405 0-7.336 3.822-16.461 11.429-26.537 10.758-1.963-0.13-5.723-1.88-8.606-2.869-6.272-2.151-10.81-4.07-15.061-7.889-15.225-4.417-28.85 1.845-38.729 7.172 6.727-7.148 13.883-13.132 26.537-12.91 8.854 0.156 17.516 6.135 25.102 2.869-4.659-4.426-11.455-6.714-20.082-7.172 14.442-8.656 36.405-12.256 57.376-13.627 8.723-0.57 19.098-0.125 27.254 0.717 2.712 0.28 5.284 1.583 7.889 1.435 6.814-0.387 12.358-6.553 19.364-6.455 3.956 0.056 14.649 4.016 17.931 7.172 3.83 3.684 8.131 13.161 9.323 20.799 0.573 3.672 0.085 7.234 0.718 10.758 2.307 12.862 10.024 27.085 10.758 37.294 0.71 9.893-3.523 20.917-8.606 24.385-1.43-12.436-4.249-23.483-6.455-35.143-6.367-11.324-9.281-26.101-16.496-36.578-4.633-4.828-14.188-11.589-8.605-20.082 15.618-1.926 19.691 13.729 20.799 28.688 6.726-8.108-2.234-18.835-3.586-25.819-4.563-6.45-23.39-11.055-21.517 4.303-1.684-0.229-2.692-1.133-5.021-0.717 3.852 5.4 9.59 7.466 13.627 12.91 0.732 0.987 0.073 2.615 0.717 3.586 0.364 0.548 1.646 0.665 2.152 1.435 6.93 10.515 10.425 24.95 15.061 39.446 0.63 1.969 2.339 3.813 2.869 5.738 2.729 9.905 1.79 20.033 3.586 30.122 1.667 9.362 2.51 25.85-1.435 35.143-4.683-0.337-3.991-6.049-8.606-6.455-0.9 3.545 4.01 7.454 6.455 10.041 0.807 3.556 1.033 7.25 2.151 10.041 5.27 13.149 20.072 19.134 15.778 38.729-3.269 2.966-8.468 7.156-16.495 7.172-8.066 0.016-17.245-3.676-25.819-5.738-4.102-0.986-8.246-2.242-12.192-3.586-18.115-6.168-54.299-12.827-74.589-2.869-4.155 2.039-7.443 5.568-11.476 7.889-5.942 3.42-12.672 5.494-19.364 8.606-6.706 3.119-15.584 9.208-23.667 9.324-1.033 0.162-0.25 2.141-1.435 2.151-7.42 1.246-19.19 5.181-27.253 2.152-3.06-1.149-3.418-4.651-6.455-5.021-10.235-26.493 9.922-47.37 9.324-71.003-3.629 1.054-0.125 5.008-2.869 7.172-5.828-17.055-6.236-39.501-3.586-58.811 1.768-12.886 5.845-22.013 10.758-32.991 4.398-9.792 9.439-17.2 17.22-22.214zm73.873-26.536c-1.523 4.454-3.653 8.301-4.304 13.626 6.012-0.921 7.846-6.02 11.476-9.323-0.26-3.57-2.74-4.921-7.18-4.303zm-20.8 5.02c3.065 3.39 4.342 8.568 10.758 8.606 0.91-7.815-6.15-16.878-10.76-8.606zm43.75 0c-3.449 4.257-13.388 2.733-15.062 7.89 9.701-1.068 22.503-7.161 35.86-5.738 6.148 0.655 10.914 3.423 16.495 4.303 2.521 2.461 4.34 5.014 5.738 7.889 1.373 2.824 3.741 5.067 5.021 7.889 1.669 3.685 1.488 8.862 5.02 11.475 0.84-30.738-26.12-43.254-53.08-33.708zm-5.02 73.155c16.65 2.738 16.188-40.867 0.717-38.729-15.28 2.112-12.82 36.739-0.72 38.729zm-60.963 10.037c16.145-3.362 9.523-56.82-10.041-38.012-7.547 8.944-6.469 41.452 10.041 38.012zm1.434 48.06c4.827 4.698 25.802 8.049 39.446 6.455 10.904-1.274 25.045-8.462 27.253-14.344 1.062-2.828 0.988-6.27 0-9.324-1.337-4.133-9.096-11.085-11.476-12.192-10.059-4.68-27.208-2.329-35.86-0.717-5.229 4.812-14.212 5.869-19.364 10.758-2.72 7.59-4.349 15.12 0.005 19.36z" fill="#fff"/>
</g>
<metadata><rdf:RDF><cc:Work><dc:format>image/svg+xml</dc:format><dc:type rdf:resource="http://purl.org/dc/dcmitype/StillImage"/><cc:license rdf:resource="http://creativecommons.org/licenses/publicdomain/"/><dc:publisher><cc:Agent rdf:about="http://openclipart.org/"><dc:title>Openclipart</dc:title></cc:Agent></dc:publisher><dc:title>puppy</dc:title><dc:date>2006-12-26T23:04:12</dc:date><dc:description>a front view of a puppy dog from a U.S. patent drawing</dc:description><dc:source>http://openclipart.org/detail/2292/puppy-by-johnny_automatic-2292</dc:source><dc:creator><cc:Agent><dc:title>johnny_automatic</dc:title></cc:Agent></dc:creator><dc:subject><rdf:Bag><rdf:li>animal</rdf:li><rdf:li>cartoon</rdf:li><rdf:li>clip art</rdf:li><rdf:li>clipart</rdf:li><rdf:li>dog</rdf:li><rdf:li>externalsource</rdf:li><rdf:li>image</rdf:li><rdf:li>mammal</rdf:li><rdf:li>media</rdf:li><rdf:li>png</rdf:li><rdf:li>public domain</rdf:li><rdf:li>puppy</rdf:li><rdf:li>svg</rdf:li><rdf:li>uspto</rdf:li></rdf:Bag></dc:subject></cc:Work><cc:License rdf:about="http://creativecommons.org/licenses/publicdomain/"><cc:permits rdf:resource="http://creativecommons.org/ns#Reproduction"/><cc:permits rdf:resource="http://creativecommons.org/ns#Distribution"/><cc:permits rdf:resource="http://creativecommons.org/ns#DerivativeWorks"/></cc:License></rdf:RDF></metadata></svg>
